<svg xmlns="http://www.w3.org/2000/svg" version="1.1" xmlns:xlink="http://www.w3.org/1999/xlink" viewBox="0 0 11.347176176763929 3.390138823248303"><g transform="matrix(1,0,0,1,3.2922847118103795,1.1243194116241517)"><rect width="11.347176176763929" height="11.347176176763929" x="-3.292284711810379" y="-5.102838088381965" fill="#ffffff"></rect><g clip-path="url(#SvgjsClipPath1002)"><g clip-path="url(#SvgjsClipPath10008d924380-6368-4b6f-aaab-2d0448032eae)"><path d=" M -1.6404608177673357 0.3788512372414288 C -1.5914869950416348 0.22748358751476028 -1.6090210586469256 0.06244608712728661 -1.6887061150926108 -0.0752524694206742 C -1.7633203503750903 -0.20455925338697256 -1.8862484558751982 -0.2989269137668173 -2.030444344338427 -0.33759310360746475 C -2.1746402328016687 -0.37625929344811393 -2.328290522268747 -0.3560562492691629 -2.4575897691537416 -0.2814289537167478 C -2.522050827304674 -0.24418451804735092 -2.5441509349230045 -0.16175896009295732 -2.5069690371426576 -0.09726180911927984 L -2.292906302322252 0.2734435096450616 C -2.2556806044993922 0.3379289867114894 -2.1732323005467555 0.3600351930329607 -2.1087391577247723 0.3228227776339704 C -2.0442723881316183 0.28557941723852265 -2.022190373318332 0.20313528042778728 -2.059411433856937 0.1386556330365024 L -2.189663427810987 -0.086901440783403 C -2.0801691519055563 -0.09193527928031231 -1.9770058778610178 -0.035492701709978536 -1.9222009835578922 0.05943231894573486 C -1.8812016248222951 0.1303791671102793 -1.8718520040806448 0.21527372344447393 -1.8964289230208944 0.2934426286217785 C -1.9582818683097187 0.4653422724036309 -1.6936543507157047 0.5506477927811328 -1.6406154501305419 0.37869660487820545 Z M -0.51164456624632 -0.4244638896971501 C -0.293831221255334 -0.047119227506893124 -0.4037509209093373 0.4343384960031458 -0.7637468624193517 0.6797658160715476 C -0.7010246815399879 0.7151902308742406 -0.6489719963652303 0.7668156710270408 -0.6130318523989251 0.8292437671862027 L -0.45412132712771625 1.1044893737214612 C -0.3426527211621484 1.2977198054059307 -0.40884501538924667 1.5447238841773987 -0.6020014104890623 1.6563207339399009 C -0.9793263974760265 1.8741547111006853 -1.4607862254100645 1.764229399812037 -1.7061795721367006 1.4042184377668798 C -1.7416039869393882 1.466940618646245 -1.7932294270921905 1.518993303820999 -1.8556575232513608 1.5549334477873105 L -2.1309546739076834 1.7138439730585078 C -2.324185105592156 1.8253125790240734 -2.5711891843636274 1.7591202847969716 -2.682786034126122 1.5659638896971506 C -2.900583240060029 1.1886220662917795 -2.7906391119419367 0.7071782575130428 -2.43063219383203 0.46178572804952545 C -2.4933543747113873 0.42636131324683246 -2.5454070598861454 0.374735873094032 -2.5813472038524505 0.31230777693486855 L -2.7403092732447254 0.03706217039961257 C -2.8517778792103003 -0.15616826128485845 -2.785585584983195 -0.40317234005632646 -2.592429189883386 -0.5147691898188279 C -2.2150885330688643 -0.7326091198851691 -1.733611657990964 -0.6226850478128166 -1.4881994841146748 -0.2626668936458061 C -1.452795437017178 -0.3254044815299094 -1.4011652035035034 -0.3774619997347406 -1.3387215330000146 -0.41338190366623817 L -1.0634759264647586 -0.5722924289374349 C -0.8702589869150803 -0.6837696856630998 -0.6232590713576007 -0.6176015782636173 -0.5116445662463334 -0.4244638896971501 Z M -1.5539182384840533 0.7627003068796443 C -1.6029385130935085 0.9140403625376363 -1.5854215344343865 1.079074656664182 -1.5057244852798446 1.216752469420673 C -1.3503085967780988 1.4860034158863127 -1.006062017007708 1.578307097283385 -0.7367892870976473 1.4229289537167475 C -0.6723160279499836 1.385665422406928 -0.650235943655264 1.3032054210805908 -0.6874615632298049 1.2387102649982045 L -0.9014727539291298 0.868004946233863 C -0.938716114324593 0.803538176640697 -1.0211602511353284 0.7814561618274107 -1.0856398985266165 0.8186772223660275 C -1.1501253755930343 0.8559029201888844 -1.1722315819144986 0.9383512241415142 -1.1350191665155185 1.0028443669634954 L -1.0047671725614684 1.2284014407834019 C -1.1142515354497797 1.2334512278173502 -1.2174073638972946 1.1770018452108526 -1.2721780726934833 1.082067681054263 C -1.3131502723284416 1.0111307189690542 -1.322498948339319 0.926263438142312 -1.2979501332304946 0.8481089154992929 C -1.23609718794167 0.6757969187488504 -1.501188602625344 0.5911614719453102 -1.5537120619997737 0.7628033951217925 Z M -1.4054196256698 0.5274529382978237 C -1.2540335753392224 0.5765260251206112 -1.0889302267941812 0.5590076829860655 -0.9512128307655521 0.47925918509361676 C -0.6819683704668704 0.3238634763284841 -0.5896627535321186 -0.02036724562544534 -0.7450363464694818 -0.2896244689675176 C -0.7823009466659534 -0.35409202379459437 -0.8647423790525344 -0.3761902029289943 -0.9292550351880282 -0.33900373695642644 L -1.2999603539523679 -0.1249410021360281 C -1.364427123545529 -0.08769764174058037 -1.386509138358815 -0.005253504929844888 -1.3492880778202103 0.05922614246143987 C -1.3120447174247403 0.12369291205460597 -1.2296005806140118 0.14577492686789206 -1.1651209332227235 0.10855386632927533 L -0.9395638594028299 -0.021646583503696304 C -0.9345378017069585 0.0878322892818284 -0.9909808716043043 0.19097658185929078 -1.0858976191319696 0.24576431662831155 C -1.1568345812171668 0.2867365162632718 -1.2417018620439086 0.2960851922741492 -1.3198563846869382 0.27153637716531953 C -1.4899519842311952 0.21030196132938694 -1.5786594165995844 0.4716306551746603 -1.4053165374276533 0.527246761813527 Z M -1.7893202394290955 0.6139439734600276 C -1.9406314608190458 0.5650340069954156 -2.1055864486256306 0.5825859969539393 -2.2432177696069036 0.662240814906383 C -2.372528071558065 0.7368649753551253 -2.466896694976181 0.8598022981365514 -2.505562540641339 1.0040065695447735 C -2.5442283863065045 1.1482108409529934 -2.524023966457183 1.3018689153814091 -2.4493942539029803 1.4311760130885913 C -2.4315187717399347 1.4621450899222759 -2.402070070349394 1.484742099265267 -2.3675298133690568 1.49399343593758 C -2.3329895563887266 1.503244772609892 -2.2961886967753813 1.4983921880865827 -2.265227109305494 1.4805037369564271 L -1.8945217905411609 1.2664925462571028 C -1.86355271370749 1.2486170640940664 -1.8409557043644915 1.2191683627035217 -1.8317043676921818 1.1846281057231929 C -1.8224530310198652 1.1500878487428658 -1.8273056155431844 1.1132869891295238 -1.8451940666733322 1.082325401659633 C -1.8824197644961855 1.017839924593207 -1.9648680684488222 0.9957337182717356 -2.029361211270805 1.032946133670726 L -2.2549182850906986 1.1631981276247685 C -2.2599458529217005 1.0537056075547888 -2.20347828715264 0.9505528852977885 -2.1085329812404927 0.8957872274927596 C -2.0374309930712426 0.8546306309504164 -1.9522972300436368 0.8452773280469219 -1.8739556862326374 0.8700151669557519 C -1.7018498659664933 0.9310434063073894 -1.6175752280104716 0.6665705210766004 -1.7893202394290955 0.6139439734600276 Z" fill="#40826d" transform="matrix(1,0,0,1,0,0)" fill-rule="evenodd"></path></g></g><g><path d=" M 0.252 0.20699999999999974 L 0.252 0.5564999999999998 L 0.633 0.5564999999999998 L 0.633 0.6689999999999997 L 0.252 0.6689999999999997 L 0.252 1.0289999999999997 L 0.678 1.0289999999999997 L 0.678 1.1414999999999997 L 0.1155 1.1414999999999997 L 0.1155 0.0944999999999998 L 0.678 0.0944999999999998 L 0.678 0.20699999999999974 L 0.252 0.20699999999999974 M 1.191000732421875 1.0154999999999998 L 1.4460007324218749 0.3194999999999997 L 1.591500732421875 0.3194999999999997 L 1.269000732421875 1.1414999999999997 L 1.110000732421875 1.1414999999999997 L 0.787500732421875 0.3194999999999997 L 0.934500732421875 0.3194999999999997 L 1.191000732421875 1.0154999999999998 M 2.4719619140624998 0.7814999999999998 L 1.8149619140625 0.7814999999999998 Q 1.8224619140625 0.9029999999999997 1.8982119140625 0.9712499999999997 Q 1.9739619140625 1.0394999999999996 2.0819619140625 1.0394999999999996 Q 2.1704619140625 1.0394999999999996 2.2297119140625 0.9982499999999997 Q 2.2889619140625 0.9569999999999997 2.3129619140625 0.8879999999999997 L 2.4599619140625 0.8879999999999997 Q 2.4269619140625 1.0064999999999997 2.3279619140625 1.0807499999999997 Q 2.2289619140625 1.1549999999999998 2.0819619140625 1.1549999999999998 Q 1.9649619140625 1.1549999999999998 1.8727119140625 1.1024999999999998 Q 1.7804619140625 1.0499999999999998 1.7279619140625 0.9532499999999997 Q 1.6754619140625 0.8564999999999997 1.6754619140625 0.7289999999999996 Q 1.6754619140625 0.6014999999999997 1.7264619140625 0.5054999999999997 Q 1.7774619140625 0.40949999999999975 1.8697119140625 0.3577499999999997 Q 1.9619619140625 0.3059999999999997 2.0819619140625 0.3059999999999997 Q 2.1989619140625 0.3059999999999997 2.2889619140625 0.35699999999999976 Q 2.3789619140625 0.4079999999999997 2.4277119140625 0.49724999999999975 Q 2.4764619140625 0.5864999999999997 2.4764619140625 0.6989999999999997 Q 2.4764619140625 0.7379999999999998 2.4719619140624998 0.7814999999999998 M 2.3009619140625 0.5362499999999997 Q 2.2664619140625 0.47999999999999976 2.2072119140625 0.45074999999999976 Q 2.1479619140625 0.42149999999999976 2.0759619140625 0.42149999999999976 Q 1.9724619140625 0.42149999999999976 1.8997119140625 0.4874999999999997 Q 1.8269619140625 0.5534999999999998 1.8164619140625 0.6704999999999997 L 2.3354619140625 0.6704999999999997 Q 2.3354619140625 0.5924999999999997 2.3009619140625 0.5362499999999997 M 3.29995458984375 0.39524999999999977 Q 3.39295458984375 0.48599999999999977 3.39295458984375 0.6569999999999998 L 3.39295458984375 1.1414999999999997 L 3.25795458984375 1.1414999999999997 L 3.25795458984375 0.6764999999999997 Q 3.25795458984375 0.5534999999999998 3.19645458984375 0.48824999999999974 Q 3.13495458984375 0.4229999999999997 3.02845458984375 0.4229999999999997 Q 2.92045458984375 0.4229999999999997 2.85670458984375 0.4904999999999997 Q 2.79295458984375 0.5579999999999997 2.79295458984375 0.6869999999999997 L 2.79295458984375 1.1414999999999997 L 2.65645458984375 1.1414999999999997 L 2.65645458984375 0.3194999999999997 L 2.79295458984375 0.3194999999999997 L 2.79295458984375 0.4364999999999998 Q 2.83345458984375 0.3734999999999997 2.90320458984375 0.33899999999999975 Q 2.97295458984375 0.30449999999999977 3.05695458984375 0.30449999999999977 Q 3.20695458984375 0.30449999999999977 3.29995458984375 0.39524999999999977 M 3.7829765625 0.4319999999999997 L 3.7829765625 0.9164999999999998 Q 3.7829765625 0.9764999999999997 3.8084765625 1.0012499999999998 Q 3.8339765625 1.0259999999999998 3.8969765625 1.0259999999999998 L 3.9974765625 1.0259999999999998 L 3.9974765625 1.1414999999999997 L 3.8744765625 1.1414999999999997 Q 3.7604765625 1.1414999999999997 3.7034765625 1.0889999999999997 Q 3.6464765625 1.0364999999999998 3.6464765625 0.9164999999999998 L 3.6464765625 0.4319999999999997 L 3.5399765625 0.4319999999999997 L 3.5399765625 0.3194999999999997 L 3.6464765625 0.3194999999999997 L 3.6464765625 0.11249999999999982 L 3.7829765625 0.11249999999999982 L 3.7829765625 0.3194999999999997 L 3.9974765625 0.3194999999999997 L 3.9974765625 0.4319999999999997 L 3.7829765625 0.4319999999999997 M 5.355040283203125 0.3989999999999997 Q 5.311540283203125 0.3074999999999998 5.229040283203125 0.25724999999999976 Q 5.146540283203125 0.20699999999999974 5.037040283203125 0.20699999999999974 Q 4.927540283203125 0.20699999999999974 4.839790283203125 0.25724999999999976 Q 4.752040283203125 0.3074999999999998 4.701790283203125 0.4012499999999998 Q 4.651540283203125 0.4949999999999998 4.651540283203125 0.6179999999999998 Q 4.651540283203125 0.7409999999999997 4.701790283203125 0.8339999999999997 Q 4.752040283203125 0.9269999999999997 4.839790283203125 0.9772499999999997 Q 4.927540283203125 1.0274999999999996 5.037040283203125 1.0274999999999996 Q 5.190040283203125 1.0274999999999996 5.289040283203125 0.9359999999999997 Q 5.388040283203125 0.8444999999999998 5.404540283203125 0.6884999999999997 L 4.987540283203125 0.6884999999999997 L 4.987540283203125 0.5774999999999997 L 5.550040283203125 0.5774999999999997 L 5.550040283203125 0.6824999999999997 Q 5.5380402832031255 0.8114999999999997 5.469040283203125 0.9187499999999997 Q 5.400040283203125 1.0259999999999998 5.287540283203125 1.0882499999999997 Q 5.175040283203125 1.1504999999999996 5.037040283203125 1.1504999999999996 Q 4.891540283203125 1.1504999999999996 4.771540283203125 1.0822499999999997 Q 4.651540283203125 1.0139999999999998 4.581790283203125 0.8924999999999997 Q 4.512040283203125 0.7709999999999997 4.512040283203125 0.6179999999999998 Q 4.512040283203125 0.46499999999999975 4.581790283203125 0.34274999999999967 Q 4.651540283203125 0.2204999999999997 4.771540283203125 0.15224999999999966 Q 4.891540283203125 0.08399999999999963 5.037040283203125 0.08399999999999963 Q 5.203540283203125 0.08399999999999963 5.331790283203125 0.16649999999999976 Q 5.460040283203125 0.24899999999999967 5.518540283203125 0.3989999999999997 L 5.355040283203125 0.3989999999999997 M 5.96931298828125 0.3434999999999997 Q 6.03606298828125 0.30449999999999977 6.13206298828125 0.30449999999999977 L 6.13206298828125 0.4454999999999997 L 6.09606298828125 0.4454999999999997 Q 5.86656298828125 0.4454999999999997 5.86656298828125 0.6944999999999997 L 5.86656298828125 1.1414999999999997 L 5.73006298828125 1.1414999999999997 L 5.73006298828125 0.3194999999999997 L 5.86656298828125 0.3194999999999997 L 5.86656298828125 0.45299999999999974 Q 5.90256298828125 0.38249999999999973 5.96931298828125 0.3434999999999997 M 6.294041748046875 0.1589999999999997 Q 6.267041748046875 0.13199999999999967 6.267041748046875 0.09299999999999975 Q 6.267041748046875 0.053999999999999604 6.294041748046875 0.02699999999999969 Q 6.321041748046875 -2.220446049250313e-16 6.360041748046875 -2.220446049250313e-16 Q 6.397541748046875 -2.220446049250313e-16 6.423791748046875 0.02699999999999969 Q 6.450041748046875 0.053999999999999604 6.450041748046875 0.09299999999999975 Q 6.450041748046875 0.13199999999999967 6.423791748046875 0.1589999999999997 Q 6.397541748046875 0.18599999999999972 6.360041748046875 0.18599999999999972 Q 6.321041748046875 0.18599999999999972 6.294041748046875 0.1589999999999997 M 6.426041748046875 0.3194999999999997 L 6.426041748046875 1.1414999999999997 L 6.289541748046875 1.1414999999999997 L 6.289541748046875 0.3194999999999997 L 6.426041748046875 0.3194999999999997 M 6.658499267578125 0.5062499999999998 Q 6.709499267578125 0.4109999999999997 6.798749267578125 0.3584999999999997 Q 6.887999267578125 0.3059999999999997 6.998999267578125 0.3059999999999997 Q 7.094999267578125 0.3059999999999997 7.177499267578125 0.35024999999999973 Q 7.259999267578125 0.39449999999999974 7.303499267578125 0.4664999999999997 L 7.303499267578125 0.03149999999999964 L 7.441499267578125 0.03149999999999964 L 7.441499267578125 1.1414999999999997 L 7.303499267578125 1.1414999999999997 L 7.303499267578125 0.9869999999999998 Q 7.262999267578125 1.0604999999999998 7.183499267578125 1.1077499999999998 Q 7.103999267578125 1.1549999999999998 6.997499267578125 1.1549999999999998 Q 6.887999267578125 1.1549999999999998 6.798749267578125 1.1009999999999998 Q 6.709499267578125 1.0469999999999997 6.658499267578125 0.9494999999999998 Q 6.607499267578125 0.8519999999999998 6.607499267578125 0.7274999999999997 Q 6.607499267578125 0.6014999999999997 6.658499267578125 0.5062499999999998 M 7.265999267578125 0.5669999999999997 Q 7.228499267578125 0.4979999999999998 7.1647492675781255 0.4612499999999997 Q 7.100999267578125 0.42449999999999977 7.024499267578125 0.42449999999999977 Q 6.947999267578125 0.42449999999999977 6.884999267578125 0.4604999999999997 Q 6.821999267578125 0.4964999999999997 6.784499267578125 0.5654999999999997 Q 6.746999267578125 0.6344999999999997 6.746999267578125 0.7274999999999997 Q 6.746999267578125 0.8219999999999997 6.784499267578125 0.8917499999999997 Q 6.821999267578125 0.9614999999999998 6.884999267578125 0.9982499999999997 Q 6.947999267578125 1.0349999999999997 7.024499267578125 1.0349999999999997 Q 7.100999267578125 1.0349999999999997 7.1647492675781255 0.9982499999999997 Q 7.228499267578125 0.9614999999999998 7.265999267578125 0.8917499999999997 Q 7.303499267578125 0.8219999999999997 7.303499267578125 0.7289999999999996 Q 7.303499267578125 0.6359999999999997 7.265999267578125 0.5669999999999997" fill="#29162a" fill-rule="nonzero"></path></g><g></g></g><defs><clipPath id="SvgjsClipPath1002"><path d=" M -2.7944306003724555 -0.6264653001862279 h 2.3944306003724556 v 2.3944306003724556 h -2.3944306003724556 Z"></path></clipPath><clipPath id="SvgjsClipPath10008d924380-6368-4b6f-aaab-2d0448032eae"><path d=" M -2.7944306003724555 -0.6264653001862279 L -0.3999999999999999 -0.6264653001862279 L -0.3999999999999999 1.7679653001862277 L -2.7944306003724555 1.7679653001862277 Z"></path></clipPath></defs></svg>